<?xml version="1.0" standalone="no"?>
<!DOCTYPE svg PUBLIC "-//W3C//DTD SVG 20010904//EN"
 "http://www.w3.org/TR/2001/REC-SVG-20010904/DTD/svg10.dtd">
<svg version="1.0" xmlns="http://www.w3.org/2000/svg"
 width="1500.000000pt" height="1500.000000pt" viewBox="0 0 1500.000000 1500.000000"
 preserveAspectRatio="xMidYMid meet">
<metadata>
Created by potrace 1.14, written by Peter Selinger 2001-2017
</metadata>
<g transform="translate(0.000000,1500.000000) scale(0.100000,-0.100000)"
fill="#000000" stroke="none">
<path d="M7205 13169 c-771 -63 -1489 -333 -2095 -788 -391 -294 -745 -681
-1006 -1101 -403 -648 -614 -1432 -591 -2200 18 -607 153 -1144 422 -1680 137
-275 358 -612 436 -666 53 -36 147 -45 214 -20 52 21 51 19 675 699 333 364
474 524 495 565 28 52 30 65 30 157 0 100 0 100 -53 213 -29 62 -66 151 -83
197 -51 141 -120 221 -224 260 -23 9 -150 33 -281 53 l-239 37 0 295 0 294
241 37 c262 39 318 57 391 122 46 42 82 104 119 207 14 41 49 125 78 185 50
108 51 112 51 205 0 124 -14 154 -181 380 -72 96 -134 181 -138 189 -6 9 35
57 145 168 85 85 180 177 211 204 l57 50 198 -146 c158 -116 211 -149 262
-165 112 -35 173 -27 333 46 53 24 133 57 178 74 108 39 159 70 209 126 56 63
74 121 105 324 15 96 32 203 38 238 l10 62 293 0 293 0 6 -32 c3 -18 20 -125
37 -237 35 -232 53 -290 110 -355 50 -56 101 -87 209 -126 45 -17 125 -50 178
-74 160 -73 221 -81 333 -46 51 16 104 49 262 165 l198 146 210 -202 c115
-112 208 -208 205 -214 -2 -6 -63 -92 -136 -190 -180 -244 -185 -255 -185
-380 0 -99 0 -101 51 -210 29 -60 64 -144 78 -185 37 -103 73 -165 119 -207
73 -65 129 -83 391 -122 l241 -37 0 -294 0 -295 -244 -37 c-274 -42 -322 -58
-395 -131 -48 -49 -83 -110 -111 -197 -10 -30 -43 -109 -74 -175 l-56 -120 0
-100 c0 -89 3 -106 26 -151 20 -39 208 -303 292 -412 8 -10 -39 -63 -194 -218
-112 -112 -208 -204 -213 -204 -4 0 -92 61 -195 137 -232 170 -267 188 -381
188 -82 -1 -90 -3 -210 -57 -69 -31 -161 -69 -204 -84 -44 -15 -100 -42 -125
-59 -57 -39 -116 -116 -136 -175 -10 -33 -85 -475 -85 -506 0 -2 -133 -4 -295
-4 l-294 0 -6 33 c-3 17 -19 122 -35 232 -35 233 -47 273 -98 339 -48 64 -110
106 -208 140 -43 15 -135 53 -204 84 -120 54 -128 56 -210 56 -71 1 -94 -4
-141 -25 -53 -25 -451 -310 -512 -368 -66 -61 -90 -170 -55 -251 24 -55 86
-109 147 -127 98 -28 129 -14 363 158 115 85 210 148 218 145 19 -6 177 -73
210 -89 24 -12 26 -24 63 -262 32 -209 43 -260 67 -311 36 -73 100 -136 178
-172 l57 -27 460 0 460 0 57 27 c78 36 142 99 178 172 25 51 35 101 67 314
l38 252 70 27 c39 14 92 37 119 50 26 13 53 22 60 20 6 -3 101 -70 210 -151
234 -172 271 -189 396 -184 146 5 158 14 506 362 355 355 359 360 359 516 0
125 -13 152 -194 395 -100 134 -140 196 -137 210 2 11 24 67 47 125 24 58 44
106 44 107 1 1 111 19 245 39 135 20 269 45 297 56 65 24 150 99 185 165 45
84 50 135 46 578 -3 401 -4 411 -26 467 -30 75 -96 147 -171 187 -53 28 -88
36 -317 71 -141 22 -257 41 -258 42 -2 3 -73 180 -89 219 -10 25 0 41 132 220
183 247 196 274 196 399 0 151 -1 152 -374 523 -363 361 -350 352 -511 352
-75 0 -104 -5 -140 -21 -25 -12 -135 -87 -245 -168 -117 -86 -206 -145 -215
-142 -8 3 -64 25 -125 50 l-110 45 -37 247 c-21 136 -45 268 -55 292 -38 100
-133 185 -244 217 -49 14 -114 15 -485 13 -425 -3 -430 -3 -488 -27 -77 -31
-164 -117 -194 -192 -14 -34 -36 -146 -60 -302 l-37 -248 -110 -45 c-61 -25
-117 -47 -125 -50 -9 -3 -98 56 -215 142 -110 81 -220 156 -245 168 -36 16
-65 21 -140 21 -161 0 -148 9 -511 -352 -373 -371 -374 -372 -374 -523 0 -125
13 -152 196 -399 132 -179 142 -195 132 -220 -16 -39 -87 -216 -89 -219 -1 -1
-117 -20 -258 -42 -229 -35 -264 -43 -317 -71 -75 -40 -141 -112 -171 -187
-22 -56 -23 -66 -26 -467 -4 -443 1 -494 46 -578 35 -66 120 -141 185 -165 28
-11 162 -36 297 -56 134 -20 244 -38 245 -39 0 -1 20 -49 44 -107 23 -58 44
-112 44 -121 1 -9 -164 -198 -368 -419 -203 -222 -382 -417 -396 -433 l-26
-31 -52 85 c-78 126 -220 416 -278 569 -213 562 -280 1177 -192 1775 89 611
345 1199 735 1690 113 142 418 447 559 559 449 356 964 595 1520 705 248 50
411 65 690 65 279 0 442 -15 690 -65 601 -119 1152 -388 1620 -789 127 -110
355 -345 458 -475 417 -523 672 -1138 753 -1815 24 -200 24 -583 0 -780 -120
-996 -612 -1855 -1404 -2448 -181 -135 -304 -210 -542 -330 -113 -57 -213
-111 -223 -120 -10 -9 -28 -32 -40 -51 -21 -34 -22 -49 -27 -306 l-5 -270
-1430 -5 c-1184 -4 -1434 -7 -1455 -19 -167 -91 -170 -316 -5 -404 l40 -22
1548 -3 c1019 -1 1562 1 1586 8 55 15 117 63 143 112 22 42 23 53 26 349 l3
305 87 43 c335 165 704 434 998 726 654 652 1058 1502 1156 2435 17 162 17
619 0 775 -100 926 -479 1738 -1112 2389 -697 716 -1577 1126 -2584 1206 -147
11 -434 11 -581 -1z"/>
<path d="M7271 10524 c-169 -28 -377 -113 -526 -214 -703 -478 -799 -1474
-200 -2075 261 -262 588 -397 960 -397 371 0 699 135 960 397 599 601 503
1597 -200 2075 -153 104 -358 186 -535 215 -117 18 -344 18 -459 -1z m401
-448 c667 -131 960 -911 543 -1444 -174 -222 -425 -342 -718 -342 -277 0 -525
120 -698 338 -420 527 -133 1311 531 1447 88 18 252 18 342 1z"/>
<path d="M5904 4311 c-84 -38 -144 -145 -130 -232 14 -85 58 -143 136 -178 45
-20 56 -21 1595 -21 1539 0 1550 1 1595 21 78 35 122 93 136 178 14 87 -46
194 -130 232 -39 18 -107 19 -1601 19 -1494 0 -1562 -1 -1601 -19z"/>
<path d="M6285 3371 c-53 -24 -101 -74 -121 -128 -14 -35 -16 -65 -11 -156 24
-472 306 -906 727 -1121 222 -113 377 -151 625 -151 248 0 403 38 625 151 421
215 703 649 727 1121 7 129 -5 177 -60 233 -93 96 -238 93 -329 -8 -41 -46
-58 -93 -58 -167 0 -131 -53 -313 -128 -440 -60 -103 -210 -254 -307 -311
-160 -93 -287 -128 -470 -128 -183 0 -310 35 -470 128 -97 57 -247 208 -307
311 -75 127 -128 309 -128 440 0 74 -17 121 -58 167 -67 75 -171 99 -257 59z"/>
</g>
</svg>
